<svg width="1286" height="849" viewBox="0 0 1286 849" fill="none" xmlns="http://www.w3.org/2000/svg">
<path d="M169.966 644C276.941 644 343.466 608.75 339.841 580.125L303.791 243.45C302.341 231.95 248.266 194.05 169.966 194C91.6909 194.05 37.5909 231.95 36.1909 243.475L0.140949 580.15C-3.48405 608.75 62.9909 644 169.966 644ZM169.966 536.725C248.266 536.775 303.791 564.65 303.791 575.1C303.816 585.45 248.241 613.375 169.966 613.325C91.6909 613.375 36.1159 585.45 36.1909 575.1C36.1909 564.65 91.6909 536.775 169.966 536.725Z" fill="#006CA9"/>
<path d="M1115.97 644C1222.94 644 1289.47 608.75 1285.84 580.125L1249.79 243.45C1248.34 231.95 1194.27 194.05 1115.97 194C1037.69 194.05 983.591 231.95 982.191 243.475L946.141 580.15C942.516 608.75 1008.99 644 1115.97 644ZM1115.97 536.725C1194.27 536.775 1249.79 564.65 1249.79 575.1C1249.82 585.45 1194.24 613.375 1115.97 613.325C1037.69 613.375 982.116 585.45 982.191 575.1C982.191 564.65 1037.69 536.775 1115.97 536.725Z" fill="#006CA9"/>
<path d="M642.966 644C749.941 644 816.466 608.75 812.841 580.125L776.791 243.45C775.341 231.95 721.266 194.05 642.966 194C564.691 194.05 510.591 231.95 509.191 243.475L473.141 580.15C469.516 608.75 535.991 644 642.966 644ZM642.966 536.725C721.266 536.775 776.791 564.65 776.791 575.1C776.816 585.45 721.241 613.375 642.966 613.325C564.691 613.375 509.116 585.45 509.191 575.1C509.191 564.65 564.691 536.775 642.966 536.725Z" fill="#006CA9"/>
<path d="M169.723 696.021C165.584 696.171 162.35 699.648 162.5 703.787L164.947 771.243C165.097 775.383 168.574 778.616 172.714 778.466C176.853 778.316 180.087 774.839 179.937 770.699L177.762 710.739L237.723 708.564C241.862 708.414 245.096 704.936 244.946 700.797C244.796 696.658 241.318 693.424 237.179 693.574L169.723 696.021ZM650.495 703.943C650.731 699.807 647.57 696.264 643.434 696.028L576.044 692.183C571.908 691.947 568.365 695.108 568.129 699.243C567.893 703.379 571.054 706.923 575.189 707.158L635.092 710.576L631.674 770.479C631.438 774.614 634.599 778.158 638.735 778.394C642.87 778.63 646.414 775.469 646.65 771.333L650.495 703.943ZM164.888 709.008C254.62 792.458 327.098 836.754 402.199 837.188C477.262 837.622 552.589 794.223 648 709.112L638.014 697.919C542.968 782.705 471.34 822.588 402.286 822.188C333.271 821.789 264.472 781.136 175.103 698.024L164.888 709.008Z" fill="#737370"/>
<path d="M1118.64 138.02C1122.52 136.561 1124.48 132.236 1123.02 128.359L1099.25 65.1815C1097.8 61.3046 1093.47 59.344 1089.59 60.8024C1085.72 62.2608 1083.76 66.5859 1085.21 70.4628L1106.34 126.621L1050.18 147.746C1046.3 149.204 1044.34 153.529 1045.8 157.406C1047.26 161.283 1051.59 163.244 1055.46 161.786L1118.64 138.02ZM163.022 128.251C161.504 132.105 163.397 136.46 167.251 137.978L230.054 162.717C233.908 164.235 238.263 162.342 239.781 158.488C241.299 154.634 239.406 150.279 235.552 148.761L179.727 126.771L201.717 70.9457C203.235 67.0917 201.342 62.7369 197.488 61.2188C193.634 59.7006 189.279 61.5942 187.761 65.4481L163.022 128.251ZM1119.1 124.169C939.563 42.7852 797.169 0.913478 651.538 0.503051C505.931 0.0926953 357.876 41.1315 167.009 124.122L172.991 137.878C363.028 55.2479 508.876 15.1011 651.495 15.503C794.089 15.9049 934.244 56.8434 1112.9 137.831L1119.1 124.169Z" fill="#737370"/>
<path d="M642.728 696.505C638.589 696.655 635.355 700.132 635.505 704.272L637.952 771.727C638.102 775.867 641.579 779.101 645.719 778.951C649.858 778.801 653.092 775.323 652.942 771.184L650.767 711.223L710.727 709.048C714.867 708.898 718.101 705.421 717.951 701.281C717.801 697.142 714.323 693.908 710.184 694.058L642.728 696.505ZM1123.5 704.427C1123.74 700.292 1120.57 696.748 1116.44 696.512L1049.05 692.667C1044.91 692.431 1041.37 695.592 1041.13 699.728C1040.9 703.863 1044.06 707.407 1048.19 707.643L1108.1 711.061L1104.68 770.963C1104.44 775.099 1107.6 778.642 1111.74 778.878C1115.88 779.114 1119.42 775.953 1119.65 771.818L1123.5 704.427ZM637.892 709.492C727.625 792.943 800.103 837.238 875.204 837.672C950.267 838.107 1025.59 794.708 1121 709.597L1111.02 698.403C1015.97 783.189 944.345 823.072 875.291 822.673C806.276 822.274 737.477 781.621 648.108 698.508L637.892 709.492Z" fill="#737370"/>
<path d="M125.49 470H85.9446L146.2 295.455H193.757L253.928 470H214.382L170.661 335.341H169.297L125.49 470ZM123.018 401.392H216.428V430.199H123.018V401.392Z" fill="#82D1F5"/>
<path d="M409.687 723.727V811H391.235V741.241H390.724L370.738 753.77V737.406L392.343 723.727H409.687Z" fill="#737370"/>
<path d="M642.782 135.193C636.418 135.193 630.75 134.099 625.779 131.912C620.836 129.696 616.929 126.656 614.06 122.793C611.219 118.901 609.756 114.412 609.671 109.327H628.25C628.364 111.457 629.06 113.332 630.338 114.952C631.645 116.543 633.378 117.778 635.537 118.659C637.696 119.54 640.125 119.98 642.824 119.98C645.637 119.98 648.123 119.483 650.282 118.489C652.441 117.494 654.131 116.116 655.353 114.355C656.574 112.594 657.185 110.562 657.185 108.261C657.185 105.932 656.532 103.872 655.225 102.082C653.946 100.264 652.1 98.8437 649.685 97.821C647.299 96.7983 644.458 96.2869 641.162 96.2869H633.023V82.7358H641.162C643.946 82.7358 646.404 82.2528 648.534 81.2869C650.694 80.321 652.37 78.9858 653.563 77.2812C654.756 75.5483 655.353 73.5312 655.353 71.2301C655.353 69.0426 654.827 67.125 653.776 65.4773C652.753 63.8011 651.304 62.4943 649.429 61.5568C647.583 60.6193 645.424 60.1506 642.952 60.1506C640.452 60.1506 638.165 60.6051 636.091 61.5142C634.017 62.3949 632.355 63.6591 631.105 65.3068C629.855 66.9545 629.188 68.8864 629.103 71.1023H611.418C611.503 66.0739 612.938 61.642 615.722 57.8068C618.506 53.9716 622.256 50.9744 626.972 48.8153C631.716 46.6278 637.071 45.5341 643.037 45.5341C649.06 45.5341 654.33 46.6278 658.847 48.8153C663.364 51.0028 666.873 53.9574 669.373 57.679C671.901 61.3722 673.151 65.5199 673.123 70.1222C673.151 75.0085 671.631 79.0852 668.563 82.3523C665.523 85.6193 661.56 87.6932 656.674 88.5739V89.2557C663.094 90.0795 667.98 92.3097 671.333 95.946C674.713 99.554 676.39 104.071 676.361 109.497C676.39 114.469 674.955 118.886 672.057 122.75C669.188 126.614 665.225 129.653 660.168 131.869C655.111 134.085 649.316 135.193 642.782 135.193Z" fill="#737370"/>
<path d="M850.281 811V797.705L881.346 768.94C883.988 766.384 886.204 764.082 887.994 762.037C889.812 759.991 891.19 757.989 892.127 756.028C893.065 754.04 893.534 751.895 893.534 749.594C893.534 747.037 892.951 744.835 891.787 742.989C890.622 741.114 889.031 739.679 887.014 738.685C884.997 737.662 882.71 737.151 880.153 737.151C877.483 737.151 875.153 737.69 873.164 738.77C871.176 739.849 869.642 741.398 868.562 743.415C867.483 745.432 866.943 747.832 866.943 750.616H849.429C849.429 744.906 850.721 739.949 853.306 735.744C855.892 731.54 859.514 728.287 864.173 725.986C868.832 723.685 874.201 722.534 880.281 722.534C886.531 722.534 891.971 723.642 896.602 725.858C901.261 728.045 904.883 731.085 907.468 734.977C910.054 738.869 911.346 743.33 911.346 748.358C911.346 751.653 910.693 754.906 909.386 758.116C908.108 761.327 905.821 764.892 902.525 768.812C899.23 772.705 894.585 777.378 888.591 782.832L875.849 795.318V795.915H912.497V811H850.281Z" fill="#737370"/>
<path d="M1194.94 356.562H1157.61C1156.93 351.733 1155.54 347.443 1153.44 343.693C1151.33 339.886 1148.63 336.648 1145.34 333.977C1142.04 331.307 1138.24 329.261 1133.92 327.841C1129.66 326.42 1125.03 325.71 1120.03 325.71C1110.99 325.71 1103.12 327.955 1096.42 332.443C1089.71 336.875 1084.52 343.352 1080.82 351.875C1077.13 360.341 1075.28 370.625 1075.28 382.727C1075.28 395.17 1077.13 405.625 1080.82 414.091C1084.57 422.557 1089.8 428.949 1096.5 433.267C1103.21 437.585 1110.96 439.744 1119.77 439.744C1124.71 439.744 1129.29 439.091 1133.49 437.784C1137.75 436.477 1141.53 434.574 1144.83 432.074C1148.12 429.517 1150.85 426.42 1153.01 422.784C1155.23 419.148 1156.76 415 1157.61 410.341L1194.94 410.511C1193.98 418.523 1191.56 426.25 1187.7 433.693C1183.89 441.08 1178.75 447.699 1172.27 453.551C1165.85 459.347 1158.18 463.949 1149.26 467.358C1140.4 470.71 1130.37 472.386 1119.17 472.386C1103.61 472.386 1089.69 468.864 1077.41 461.818C1065.2 454.773 1055.54 444.574 1048.44 431.222C1041.39 417.869 1037.87 401.705 1037.87 382.727C1037.87 363.693 1041.45 347.5 1048.61 334.148C1055.77 320.795 1065.48 310.625 1077.75 303.636C1090.03 296.591 1103.83 293.068 1119.17 293.068C1129.29 293.068 1138.66 294.489 1147.3 297.33C1155.99 300.17 1163.69 304.318 1170.4 309.773C1177.1 315.17 1182.56 321.79 1186.76 329.631C1191.02 337.472 1193.75 346.449 1194.94 356.562Z" fill="#82D1F5"/>
<path d="M578.835 470V295.455H648.721C661.562 295.455 672.272 297.358 680.852 301.165C689.431 304.972 695.88 310.256 700.198 317.017C704.516 323.722 706.675 331.449 706.675 340.199C706.675 347.017 705.312 353.011 702.585 358.182C699.857 363.295 696.107 367.5 691.335 370.795C686.619 374.034 681.221 376.335 675.141 377.699V379.403C681.789 379.687 688.011 381.562 693.806 385.028C699.658 388.494 704.403 393.352 708.039 399.602C711.675 405.795 713.494 413.182 713.494 421.761C713.494 431.023 711.192 439.29 706.59 446.562C702.045 453.778 695.312 459.489 686.391 463.693C677.471 467.898 666.477 470 653.408 470H578.835ZM615.738 439.83H645.823C656.107 439.83 663.607 437.869 668.323 433.949C673.039 429.972 675.397 424.687 675.397 418.097C675.397 413.267 674.232 409.006 671.903 405.312C669.573 401.619 666.249 398.722 661.931 396.619C657.67 394.517 652.585 393.466 646.675 393.466H615.738V439.83ZM615.738 368.494H643.096C648.153 368.494 652.641 367.614 656.562 365.852C660.539 364.034 663.664 361.477 665.937 358.182C668.266 354.886 669.431 350.938 669.431 346.335C669.431 340.028 667.187 334.943 662.698 331.08C658.266 327.216 651.96 325.284 643.778 325.284H615.738V368.494Z" fill="#82D1F5"/>
</svg>
